<svg xmlns="http://www.w3.org/2000/svg" width="36" height="50" viewBox="0 0 36 50">
  <metadata><?xpacket begin="﻿" id="W5M0MpCehiHzreSzNTczkc9d"?>
<x:xmpmeta xmlns:x="adobe:ns:meta/" x:xmptk="Adobe XMP Core 5.6-c142 79.160924, 2017/07/13-01:06:39        ">
   <rdf:RDF xmlns:rdf="http://www.w3.org/1999/02/22-rdf-syntax-ns#">
      <rdf:Description rdf:about=""/>
   </rdf:RDF>
</x:xmpmeta>
                                                                                                    
                                                                                                    
                                                                                                    
                                                                                                    
                                                                                                    
                                                                                                    
                                                                                                    
                                                                                                    
                                                                                                    
                                                                                                    
                                                                                                    
                                                                                                    
                                                                                                    
                                                                                                    
                                                                                                    
                                                                                                    
                                                                                                    
                                                                                                    
                                                                                                    
                                                                                                    
                           
<?xpacket end="w"?></metadata>
<defs>
    <style>
      .cls-1 {
        fill: #959595;
        fill-rule: evenodd;
      }
    </style>
  </defs>
  <path id="logo" class="cls-1" d="M135,2699.98h2.276v-3.79a22.406,22.406,0,0,1,.325-4.71,6.26,6.26,0,0,1,2.153-3.31,5.681,5.681,0,0,1,3.7-1.33,4.606,4.606,0,0,1,2.918.87,4.455,4.455,0,0,1,1.536,2.58,20.741,20.741,0,0,1,.243,3.99v5.7h2.275v-6.35a13.748,13.748,0,0,0-.731-5.21,5.918,5.918,0,0,0-2.267-2.65,6.428,6.428,0,0,0-3.519-.98,7.5,7.5,0,0,0-3.591.88,9.7,9.7,0,0,0-3.039,2.66V2676H135v23.98Zm20.574-8.12a10.436,10.436,0,0,0,.85,4.77A5.853,5.853,0,0,0,159,2699.1a9.363,9.363,0,0,0,4.3.88,9.261,9.261,0,0,0,4.284-.88,5.933,5.933,0,0,0,2.559-2.45A9.987,9.987,0,0,0,171,2692v-7.33h-2.316v6.97a12.319,12.319,0,0,1-.341,3.67,4.077,4.077,0,0,1-1.825,2.03,6.234,6.234,0,0,1-3.22.78,6.409,6.409,0,0,1-3.269-.8,4.012,4.012,0,0,1-1.857-2.17,12.674,12.674,0,0,1-.324-3.51v-6.97h-2.268v7.19Zm-7.056,16.16a8.58,8.58,0,0,0-2.772-2.26,7.2,7.2,0,0,0-3.1-.68,7.65,7.65,0,0,0-7.655,7.65,7.414,7.414,0,0,0,.981,3.76,7.162,7.162,0,0,0,2.779,2.72,7.649,7.649,0,0,0,3.841,1.01,7.741,7.741,0,0,0,3.3-.72,7.246,7.246,0,0,0,2.629-2.09v0.77a8.083,8.083,0,0,1-.572,3.53,4.441,4.441,0,0,1-1.914,1.82,6.888,6.888,0,0,1-3.291.73,7.026,7.026,0,0,1-3.31-.71,5.5,5.5,0,0,1-2.18-2.17h-2.068a8.7,8.7,0,0,0,1.755,2.65,6.915,6.915,0,0,0,2.47,1.44,10.159,10.159,0,0,0,3.422.54,8.589,8.589,0,0,0,4.45-1.1,5.944,5.944,0,0,0,2.6-3.14,13.878,13.878,0,0,0,.544-4.55v-11.76h-1.905v2.56Zm-2.722-.35a5.393,5.393,0,0,1,2.082,2.07,5.985,5.985,0,0,1,.735,2.98,5.552,5.552,0,0,1-1.6,4.14,5.756,5.756,0,0,1-4.225,1.57,5.847,5.847,0,0,1-4.232-1.58,5.375,5.375,0,0,1-1.632-4.02,5.9,5.9,0,0,1,.789-2.98,5.655,5.655,0,0,1,2.177-2.16,6.034,6.034,0,0,1,3.007-.78A5.768,5.768,0,0,1,145.8,2707.67Zm11.808-.14a7.712,7.712,0,0,0,.116,10.58,7.91,7.91,0,0,0,11.112,0,7.737,7.737,0,0,0,.116-10.6,7.813,7.813,0,0,0-11.344.02h0Zm9.744,1.11a5.7,5.7,0,0,1,1.712,4.17,5.855,5.855,0,0,1-.777,2.95,5.51,5.51,0,0,1-2.1,2.11,6.076,6.076,0,0,1-5.812,0,5.5,5.5,0,0,1-2.1-2.11,5.855,5.855,0,0,1-.777-2.95,5.713,5.713,0,0,1,1.7-4.17A5.665,5.665,0,0,1,167.352,2708.64Z" transform="translate(-135 -2676)"/>
</svg>
